<svg version="1.1" xmlns="http://www.w3.org/2000/svg" xmlns:xlink="http://www.w3.org/1999/xlink" x="0px" y="0px"
	 width="19.612px" height="18.73px" viewBox="0 0 19.612 18.73" enable-background="new 0 0 19.612 18.73" xml:space="preserve">
<path fill-rule="evenodd" fill="#e5e5e5" clip-rule="evenodd" d="M19.163,18.181c-0.633,0.691-1.705,0.737-2.393,0.1l-6.224-5.751
	c-0.441-0.406-0.616-0.993-0.52-1.544c-1.021,0.832-2.277,1.311-3.617,1.367c-1.646,0.07-3.217-0.508-4.425-1.624
	C0.776,9.614,0.073,8.091,0.005,6.44c-0.068-1.652,0.509-3.231,1.623-4.446c2.301-2.508,6.205-2.672,8.702-0.366
	c2.267,2.095,2.607,5.518,0.929,8.009c0.54-0.144,1.139-0.017,1.582,0.391l6.226,5.751C19.754,16.416,19.798,17.491,19.163,18.181z
	 M10.447,5.999C10.4,4.848,9.91,3.786,9.068,3.007C7.327,1.398,4.604,1.512,2.998,3.261C1.394,5.012,1.505,7.744,3.246,9.352
	c1.741,1.609,4.463,1.496,6.069-0.254C10.092,8.251,10.494,7.151,10.447,5.999z"/>
</svg>
